# AST/ASF file generated using VICON BodyLanguage
# -----------------------------------------------
:version 1.10
:name VICON
:units
  mass 1.0
  length 0.45
  angle deg
:documentation
   .ast/.asf automatically generated from VICON data using
   VICON BodyBuilder and BodyLanguage model FoxedUp or BRILLIANT.MOD
:root
   order TX TY TZ RX RY RZ
   axis XYZ
   position 0 0 0  
   orientation 0 0 0 
:bonedata
  begin
     id 1 
     name lhipjoint
     direction 0.722297 -0.617336 0.311742 
     length 2.6635 
     axis 0 0 0  XYZ
  end
  begin
     id 2 
     name lfemur
     direction 0.34202 -0.939693 0  
     length 7.39349  
     axis 0 0 20  XYZ
    dof rx ry rz
    limits (-160.0 20.0)
           (-70.0 70.0)
           (-60.0 70.0)
  end
  begin
     id 3 
     name ltibia
     direction 0.34202 -0.939693 0   
     length 7.36294   
     axis 0 0 20   XYZ
    dof rx
    limits (-10.0 170.0)
  end
  begin
     id 4 
     name lfoot
     direction 0.104879 -0.288152 0.951824   
     length 2.16981   
     axis -90 7.62852e-016 20   XYZ
    dof rx rz
    limits (-45.0 90.0)
           (-70.0 20.0)
  end
  begin
     id 5 
     name ltoes
     direction 1.53586e-011 -4.21895e-011 1   
     length 1.08218   
     axis -90 7.62852e-016 20   XYZ
    dof rx
    limits (-90.0 20.0)
  end
  begin
     id 6 
     name rhipjoint
     direction -0.75102 -0.589393 0.297631   
     length 2.78977  
     axis 0 0 0  XYZ 
  end
  begin
     id 7 
     name rfemur
     direction -0.34202 -0.939693 0   
     length 7.46076   
     axis 0 0 -20   XYZ
    dof rx ry rz
    limits (-160.0 20.0)
           (-70.0 70.0)
           (-70.0 60.0)
  end
  begin
     id 8 
     name rtibia
     direction -0.34202 -0.939693 0   
     length 7.31726   
     axis 0 0 -20   XYZ
    dof rx
    limits (-10.0 170.0)
 end
 begin
     id 9 
     name rfoot
     direction -0.107991 -0.296704 0.948844   
     length 2.09388  
     axis -90 -7.62852e-016 -20   XYZ
    dof rx rz
    limits (-45.0 90.0)
           (-20.0 70.0)
  end
  begin
     id 10 
     name rtoes
     direction -1.53559e-011 -4.21911e-011 1   
     length 1.04433   
     axis -90 -7.62852e-016 -20   XYZ
    dof rx
    limits (-90.0 20.0)
  end
  begin
     id 11 
     name lowerback
     direction 0.0165164 0.98272 0.184358   
     length 1.71896   
     axis 0 0 0   XYZ
    dof rx ry rz
    limits (-20.0 45.0)
           (-30.0 30.0)
           (-30.0 30.0)
  end
  begin
     id 12 
     name upperback
     direction -0.00887249 0.992297 0.123566   
     length 1.71504   
     axis 0 0 0   XYZ
    dof rx ry rz
    limits (-20.0 45.0)
           (-30.0 30.0)
           (-30.0 30.0)
  end
  begin
     id 13 
     name thorax
     direction -0.0157026 0.998908 0.0440032   
     length 1.77022   
     axis 0 0 0   XYZ
    dof rx ry rz
    limits (-20.0 45.0)
           (-30.0 30.0)
           (-30.0 30.0)
  end
  begin
     id 14 
     name lowerneck
     direction -0.0238856 0.998137 0.0561411   
     length 1.89341   
     axis 0 0 0   XYZ
    dof rx ry rz
    limits (-20.0 45.0)
           (-30.0 30.0)
           (-30.0 30.0)
  end
  begin
     id 15 
     name upperneck
     direction 0.0276574 0.952253 -0.304056   
     length 1.86999   
     axis 0 0 0   XYZ
    dof rx ry rz
    limits (-20.0 45.0)
           (-30.0 30.0)
           (-30.0 30.0)
  end
  begin
     id 16
     name head
     direction 0.00800083 0.994258 -0.106712  
     length 1.91492  
     axis 0 0 0   XYZ
    dof rx ry rz
    limits (-20.0 45.0)
           (-30.0 30.0)
           (-30.0 30.0)
  end
  begin
     id 17 
     name lclavicle
     direction 0.97203 0.225407 0.06595  
     length 3.34889  
     axis 0 0 0   XYZ
    dof ry rz
    limits (-20.0 10.0)
           (0.0 20.0)
  end
  begin
     id 18 
     name lhumerus
     direction 1 -4.48973e-011 2.20267e-027   
     length 4.85645   
     axis 180 -30 -90   XYZ
    dof rx ry rz
    limits (-60.0 90.0)
           (-90.0 90.0)
           (-90.0 90.0)
  end
  begin
     id 19
     name lradius
     direction 1 -4.4897e-011 4.60472e-027   
     length 2.79874   
     axis 180 -30 -90   XYZ
    dof rx
    limits (-10.0 170.0)
  end
  begin
     id 20
     name lwrist
     direction 1 -4.48952e-011 1.14928e-026   
     length 1.39937   
     axis -6.29373e-015 90 90   XYZ
    dof ry
    limits (-180.0 0.0)
 end
  begin
     id 21 
     name lhand
     direction 1 -4.48967e-011 2.29886e-026   
     length 0.573398   
     axis -1.46689e-014 90 90   XYZ
    dof rx rz
    limits (-90.0 90.0)
           (-45.0 45.0)
  end
  begin
     id 22 
     name lfingers
     direction 1 -4.48955e-011 4.59726e-026   
     length 0.462289   
     axis -2.93383e-014 90 90   XYZ
    dof rx
    limits (0.0 90.0)
  end
  begin
     id 23
     name lthumb
     direction 0.707107 -6.34866e-011 0.707107   
     length 0.663757   
     axis -90 45 5.69224e-014   XYZ
    dof rx rz
    limits (-45.0 45.0)
           (-45.0 45.0)
  end
  begin
     id 24 
     name rclavicle
     direction -0.981571 0.157346 0.108443   
     length 3.35257  
     axis 0 0 0   XYZ 
    dof ry rz
    limits (-10.0 20.0)
           (-20.0 0.0)
  end
  begin
     id 25 
     name rhumerus
     direction -1 -4.48967e-011 8.58308e-029  
     length 4.67018   
     axis 180 30 90   XYZ
    dof rx ry rz
    limits (-90.0 60.0)
           (-90.0 90.0)
           (-90.0 90.0)
  end
  begin
     id 26 
     name rradius
     direction -1 -4.48958e-011 4.52548e-027   
     length 2.65534   
     axis 180 30 90   XYZ
    dof rx
    limits (-10.0 170.0)
  end
  begin
     id 27 
     name rwrist
     direction -1 -4.48977e-011 1.14952e-026   
     length 1.32767   
     axis -6.29373e-015 -90 -90   XYZ
    dof ry
    limits (-180.0 0.0)
  end
  begin
     id 28
     name rhand
     direction -1 -4.48924e-011 2.29804e-026   
     length 0.594069   
     axis -1.46689e-014 -90 -90   XYZ
    dof rx rz
    limits (-90.0 90.0)
           (-45.0 45.0)
  end
  begin
     id 29
     name rfingers
     direction -1 -4.48998e-011 4.59888e-026   
     length 0.478954   
     axis -2.93383e-014 -90 -90   XYZ
    dof rx
    limits (0.0 90.0)
  end
  begin
     id 30
     name rthumb
     direction -0.707107 -6.34933e-011 0.707107   
     length 0.687685   
     axis -90 -45 -5.69224e-014   XYZ
    dof rx rz
    limits (-45.0 45.0)
           (-45.0 45.0)
  end
:hierarchy
  begin
    root lhipjoint rhipjoint lowerback
    lhipjoint lfemur
    lfemur ltibia
    ltibia lfoot
    lfoot ltoes
    rhipjoint rfemur
    rfemur rtibia
    rtibia rfoot
    rfoot rtoes
    lowerback upperback
    upperback thorax
    thorax lowerneck lclavicle rclavicle
    lowerneck upperneck
    upperneck head
    lclavicle lhumerus
    lhumerus lradius
    lradius lwrist
    lwrist lhand lthumb
    lhand lfingers
    rclavicle rhumerus
    rhumerus rradius
    rradius rwrist
    rwrist rhand rthumb
    rhand rfingers
  end

#!OML:ASF E:\pregnant2\Project 1\Capture day 1\Session 1\pregnant2.ASF
:FULLY-SPECIFIED
:DEGREES
704
root 7.02273 24.6762 -21.9739 -141.569 -72.3958 170.828
lowerback -9.79758 6.70799 5.05695
upperback -14.6293 6.94271 -10.9276
thorax -8.44368 1.7662 -14.7679
lowerneck -7.64891 2.31771 5.01981
upperneck 53.6583 -5.34298 2.17051
head 26.0289 -2.35892 -1.66918
rclavicle -1.13307e-014 -3.81667e-014
rhumerus -64.1468 -18.3717 -80.0586
rradius 40.3882
rwrist 7.01617
rhand -15.842 -14.5897
rfingers 7.12502
rthumb 10.3526 -44.3148
lclavicle -1.13307e-014 -3.81667e-014
lhumerus -50.8545 -29.2695 87.3999
lradius 47.547
lwrist 8.07712
lhand -12.8003 28.5021
lfingers 7.12502
lthumb 13.2857 58.0586
rfemur -62.451 11.6972 5.63591
rtibia 55.3907
rfoot -16.6233 -4.43906
rtoes -6.49828
lfemur -48.7738 -13.1902 -25.5279
ltibia 34.6926
lfoot -12.8219 12.7224
ltoes -0.138786
705
root 7.0151 24.6868 -22.0244 -140.813 -73.7447 170.158
lowerback -9.97373 6.56986 4.9646
upperback -14.5881 6.7862 -10.761
thorax -8.36631 1.7243 -14.5014
lowerneck -7.83161 2.46359 4.78146
upperneck 53.6887 -4.96063 2.25019
head 26.1827 -2.23296 -1.48572
rclavicle -4.22417e-014 -4.77083e-015
rhumerus -63.9632 -17.7154 -80.5632
rradius 40.4465
rwrist 6.79358
rhand -16.1196 -14.7651
rfingers 7.12502
rthumb 10.0848 -44.5034
lclavicle -4.22417e-014 -4.77083e-015
lhumerus -49.8963 -27.8895 86.7109
lradius 46.9428
lwrist 7.36318
lhand -13.1399 28.7173
lfingers 7.12502
lthumb 12.9583 58.2949
rfemur -62.5091 12.6761 4.33389
rtibia 53.9974
rfoot -16.953 -3.303
rtoes -8.0556
lfemur -48.7673 -13.7033 -24.9715
ltibia 34.5459
lfoot -12.8127 12.1164
ltoes 0.283081
706
root 7.00759 24.6969 -22.0728 -139.749 -75.1256 169.211
lowerback -10.1758 6.43749 4.61534
upperback -14.622 6.6349 -10.5434
thorax -8.38634 1.69931 -14.0249
lowerneck -7.781 2.57377 5.18937
upperneck 53.7495 -4.60396 1.87234
head 26.1936 -2.02263 -1.70958
rclavicle 6.95746e-016 3.49861e-014
rhumerus -64.0149 -17.1135 -80.8469
rradius 40.5702
rwrist 6.45761
rhand -16.0895 -14.8729
rfingers 7.12502
rthumb 10.1138 -44.6099
lclavicle 6.95746e-016 3.49861e-014
lhumerus -50.3224 -28.2802 87.2516
lradius 47.6053
lwrist 8.08437
lhand -13.4636 28.863
lfingers 7.12502
lthumb 12.6463 58.4602
rfemur -62.6089 13.6784 2.92788
rtibia 52.5941
rfoot -17.377 -2.10619
rtoes -8.79988
lfemur -48.8023 -14.1918 -24.4747
ltibia 34.3642
lfoot -12.6463 11.4772
ltoes 0.862906
707
root 6.99809 24.7097 -22.1227 -138.561 -76.4703 168.059
lowerback -10.2838 6.26921 4.4009
upperback -14.5877 6.4457 -10.3312
thorax -8.37547 1.65016 -13.6458
lowerneck -7.81102 2.69409 5.48267
upperneck 53.7571 -4.17056 1.48434
head 26.1848 -1.80772 -1.89988
rclavicle 8.84592e-015 -4.45278e-014
rhumerus -63.9167 -16.4334 -81.261
rradius 40.6971
rwrist 6.16549
rhand -16.1711 -15.0839
rfingers 7.12502
rthumb 10.0351 -44.8246
lclavicle 8.84592e-015 -4.45278e-014
lhumerus -50.0503 -27.7315 87.1167
lradius 47.6116
lwrist 8.14306
lhand -13.8305 29.0484
lfingers 7.12502
lthumb 12.2926 58.6671
rfemur -62.6011 14.6251 1.61206
rtibia 51.1908
rfoot -17.7637 -0.839988
rtoes -9.48682
lfemur -48.729 -14.5478 -24.0871
ltibia 34.1785
lfoot -12.6679 10.8065
ltoes 0.57235
708
root 6.98692 24.7219 -22.1712 -137.106 -77.8386 166.606
lowerback -10.3504 6.12833 4.0788
upperback -14.5268 6.30459 -10.1337
thorax -8.3489 1.6402 -13.2179
lowerneck -8.11169 2.90908 5.20167
upperneck 53.8656 -3.95331 2.02172
head 26.572 -1.70691 -1.4677
rclavicle -3.42904e-014 -9.54166e-015
rhumerus -63.8166 -15.695 -81.6814
rradius 40.8677
rwrist 5.65018
rhand -15.9181 -15.0067
rfingers 7.12502
rthumb 10.2792 -44.7355
lclavicle -3.42904e-014 -9.54166e-015
lhumerus -49.7787 -27.3607 87.0669
lradius 47.7029
lwrist 8.24329
lhand -13.7133 29.4442
lfingers 7.12502
lthumb 12.4056 59.0561
rfemur -62.5518 15.5514 0.329305
rtibia 49.8328
rfoot -18.1853 0.561236
rtoes -10.6426
lfemur -48.6049 -14.8623 -23.7629
ltibia 33.963
lfoot -12.6638 9.96277
ltoes 0.146468
709
root 6.97684 24.7332 -22.2195 -135.044 -79.2853 164.558
lowerback -10.454 5.97055 4.02893
upperback -14.4788 6.13015 -9.93239
thorax -8.30142 1.58607 -12.9512
lowerneck -7.9477 2.90881 5.58944
upperneck 53.7653 -3.41764 1.13883
head 26.2599 -1.48039 -1.94649
rclavicle 2.57426e-014 6.36111e-015
rhumerus -63.8498 -15.7703 -81.14
rradius 40.6312
rwrist 6.421
rhand -15.8476 -14.7065
rfingers 7.12502
rthumb 10.3471 -44.4319
lclavicle 2.57426e-014 6.36111e-015
lhumerus -49.5064 -26.6887 86.9139
lradius 47.6053
lwrist 7.85292
lhand -14.221 29.3481
lfingers 7.12502
lthumb 11.916 58.989
rfemur -62.4817 16.3904 -0.89364
rtibia 48.4995
rfoot -18.5582 1.86479
rtoes -11.7684
lfemur -48.5288 -15.3189 -23.3365
ltibia 33.7513
lfoot -12.7045 9.17952
ltoes 0.0134214
710
root 6.97167 24.7382 -22.2723 -131.639 -80.683 161.163
lowerback -10.4281 5.72353 3.67027
upperback -14.458 5.83965 -9.71316
thorax -8.41273 1.48928 -12.5084
lowerneck -7.93722 3.10571 5.36577
upperneck 53.7946 -3.0059 1.33328
head 26.3253 -1.3398 -1.68111
rclavicle 4.03533e-014 4.13472e-014
rhumerus -63.8746 -15.5226 -80.8762
rradius 40.5422
rwrist 6.81901
rhand -16.2063 -14.9001
rfingers 7.12502
rthumb 10.0011 -44.6425
lclavicle 4.03533e-014 4.13472e-014
lhumerus -49.3219 -26.0635 86.8531
lradius 47.6227
lwrist 7.73361
lhand -14.6738 29.7434
lfingers 7.12502
lthumb 11.4794 59.4091
rfemur -62.4107 17.0275 -2.04898
rtibia 47.2306
rfoot -18.9007 3.25616
rtoes -12.855
lfemur -48.4877 -15.6274 -23.1324
ltibia 33.5582
lfoot -12.7248 8.18832
ltoes -0.250741
711
root 6.9565 24.7515 -22.3197 -128.479 -82.0645 157.977
lowerback -10.4932 5.58136 3.60287
upperback -14.3826 5.69486 -9.49656
thorax -8.34503 1.45745 -12.2133
lowerneck -8.07368 3.15615 5.36483
upperneck 53.8492 -2.70228 1.07838
head 26.4662 -1.22303 -1.76707
rclavicle -1.69961e-014 -1.90833e-014
rhumerus -63.8033 -15.0236 -80.9847
rradius 40.5785
rwrist 6.70662
rhand -16.3524 -15.1634
rfingers 7.12502
rthumb 9.86021 -44.9125
lclavicle -1.69961e-014 -1.90833e-014
lhumerus -49.252 -25.8445 87.034
lradius 47.8307
lwrist 8.3938
lhand -16.5609 30.7636
lfingers 7.12502
lthumb 9.65903 60.5221
rfemur -62.222 17.7701 -2.96487
rtibia 45.9903
rfoot -19.4073 4.42817
rtoes -14.6648
lfemur -48.3705 -15.9567 -22.6926
ltibia 33.4177
lfoot -12.8421 7.17522
ltoes 0.514927
712
root 6.94164 24.7634 -22.3716 -123.744 -83.4077 153.14
lowerback -10.4147 5.39121 3.43582
upperback -14.3217 5.489 -9.25585
thorax -8.39785 1.39701 -11.8534
lowerneck -8.03339 3.29904 5.46781
upperneck 53.821 -2.23673 0.849117
head 26.4098 -1.02732 -1.81131
rclavicle 9.323e-014 -1.38354e-013
rhumerus -63.7238 -14.2041 -81.3908
rradius 40.6909
rwrist 6.21884
rhand -15.6968 -14.62
rfingers 7.12502
rthumb 10.4926 -44.3382
lclavicle 9.323e-014 -1.38354e-013
lhumerus -48.9562 -25.0345 86.752
lradius 47.678
lwrist 7.75964
lhand -16.4351 30.4246
lfingers 7.12502
lthumb 9.78035 60.1775
rfemur -61.9163 18.5146 -3.81683
rtibia 44.8377
rfoot -19.6049 5.76758
rtoes -14.2758
lfemur -48.1728 -16.2269 -22.4176
ltibia 33.2703
lfoot -12.9548 6.59564
ltoes -1.68301
713
root 6.92622 24.7682 -22.4218 -116.213 -84.723 145.565
lowerback -10.427 5.20611 3.31289
upperback -14.248 5.28874 -9.01653
thorax -8.37711 1.33976 -11.5114
lowerneck -8.03719 3.39672 5.45836
upperneck 53.7861 -1.82226 0.634316
head 26.3678 -0.871679 -1.83576
rclavicle 8.34896e-015 -2.06736e-014
rhumerus -63.6652 -13.5216 -81.5717
rradius 40.7848
rwrist 5.78225
rhand -16.6158 -15.676
rfingers 7.12502
rthumb 9.60605 -45.437
lclavicle 8.34896e-015 -2.06736e-014
lhumerus -48.7194 -24.3562 86.6686
lradius 47.5709
lwrist 7.53005
lhand -14.9805 29.9112
lfingers 7.12502
lthumb 11.1836 59.5932
rfemur -61.5956 18.9559 -4.24364
rtibia 43.7778
rfoot -19.9724 6.20055
rtoes -17.4513
lfemur -48.1146 -16.9981 -21.7498
ltibia 33.1282
lfoot -13.0825 6.16677
ltoes -1.63666
714
root 6.90608 24.7834 -22.4696 -104.513 -85.8587 133.685
lowerback -10.3416 5.0349 3.28996
upperback -14.1277 5.10928 -8.82556
thorax -8.3403 1.28513 -11.288
lowerneck -8.0792 3.49287 5.50792
upperneck 53.7662 -1.41684 0.368197
head 26.3729 -0.711619 -1.90915
rclavicle -1.08338e-014 1.74931e-014
rhumerus -63.6184 -12.9099 -81.7015
rradius 40.8582
rwrist 5.57494
rhand -16.3238 -15.6586
rfingers 7.12502
rthumb 9.88779 -45.4064
lclavicle -1.08338e-014 1.74931e-014
lhumerus -48.4146 -23.6477 86.3618
lradius 47.4585
lwrist 7.28228
lhand -16.2495 30.6627
lfingers 7.12502
lthumb 9.95949 60.4071
rfemur -61.0979 19.5706 -4.82185
rtibia 42.8345
rfoot -20.1454 6.92385
rtoes -16.3782
lfemur -47.8046 -17.3358 -21.4543
ltibia 32.9608
lfoot -13.0038 4.42974
ltoes -0.10023
715
root 6.8868 24.7901 -22.52 -84.5814 -86.6933 113.63
lowerback -10.2885 4.84798 3.16827
upperback -14.031 4.90883 -8.60526
thorax -8.32448 1.22729 -10.9739
lowerneck -8.12894 3.59154 5.54469
upperneck 53.7563 -1.02199 0.129123
head 26.4023 -0.555154 -1.96625
rclavicle -3.17062e-014 1.43125e-014
rhumerus -63.589 -12.8315 -81.2422
rradius 40.6635
rwrist 5.96447
rhand -16.178 -15.4637
rfingers 7.12502
rthumb 10.0284 -45.2048
lclavicle -3.17062e-014 1.43125e-014
lhumerus -48.4989 -23.7569 86.5129
lradius 47.76
lwrist 8.04724
lhand -15.7771 30.3749
lfingers 7.12502
lthumb 10.4152 60.097
rfemur -60.5941 19.8921 -4.98952
rtibia 42.0382
rfoot -20.3587 7.16323
rtoes -17.4655
lfemur -47.6836 -18.2937 -20.7099
ltibia 32.8095
lfoot -13.1459 4.51597
ltoes -0.47758
716
root 6.86408 24.8009 -22.5759 -57.9524 -86.9754 86.7253
lowerback -10.1922 4.6833 3.04332
upperback -13.817 4.75685 -8.39149
thorax -8.18367 1.21041 -10.655
lowerneck -8.17975 3.67688 5.59981
upperneck 53.647 -0.629103 -0.0884678
head 26.2975 -0.389459 -2.00393
rclavicle 6.39093e-014 -5.24792e-014
rhumerus -63.4313 -12.3353 -81.2613
rradius 40.6596
rwrist 5.91623
rhand -15.4566 -14.6606
rfingers 7.12502
rthumb 10.7244 -44.3669
lclavicle 6.39093e-014 -5.24792e-014
lhumerus -48.2182 -23.3553 86.4619
lradius 47.7105
lwrist 7.86889
lhand -17.3792 31.2969
lfingers 7.12502
lthumb 8.86939 61.0905
rfemur -59.8814 20.3116 -4.95358
rtibia 41.3544
rfoot -20.5907 7.30775
rtoes -17.7958
lfemur -47.199 -17.988 -20.8205
ltibia 32.6525
lfoot -13.4031 3.21217
ltoes -2.00627
717
root 6.84932 24.8002 -22.6254 -30.4266 -86.4132 59.1591
lowerback -10.0828 4.43259 2.91199
upperback -13.7878 4.46269 -8.12662
thorax -8.29663 1.09556 -10.3031
lowerneck -8.14676 3.79225 5.61734
upperneck 53.6506 -0.183985 -0.372645
head 26.3135 -0.22797 -2.0752
rclavicle 5.26779e-015 -1.74931e-014
rhumerus -63.4622 -11.3474 -81.5837
rradius 40.8699
rwrist 5.29818
rhand -16.1133 -15.5875
rfingers 7.12502
rthumb 10.0908 -45.3255
lclavicle 5.26779e-015 -1.74931e-014
lhumerus -48.0913 -22.5648 86.2542
lradius 47.6344
lwrist 7.532
lhand -14.8243 29.7365
lfingers 7.12502
lthumb 11.3342 59.4102
rfemur -59.3302 20.3389 -4.84627
rtibia 40.7656
rfoot -20.6528 7.2023
rtoes -18.1838
lfemur -47.233 -18.8655 -20.2385
ltibia 32.5517
lfoot -13.1767 2.43013
ltoes -2.53884
